# xmcd
#
# Track frame offsets:
#        150
#        16795
#        36090
#        55500
#        79400
#        100660
#        120450
#        139500
#        150450
#        182925
#
# Disc length: 2788 seconds
#
# Revision: 0
# Processed by: cddbd v1.5.1PL0 Copyright (c) Steve Scherf et al.
# Submitted via: ExactAudioCopy v0.95a5
#
DISCID=6f0ae20a
DTITLE=The Michael Schenker Group - Back To Attack Live [CD1]
DYEAR=1984
DGENRE=Hard Rock
TTITLE0=Captain Nemo
TTITLE1=Rock My Nights Away
TTITLE2=Are You Ready To Rock
TTITLE3=Cry For The Nations
TTITLE4=On And On
TTITLE5=Attack Of The Mad Axeman
TTITLE6=Into The Arena
TTITLE7=Courvoisier Concerto
TTITLE8=Lost Horizons
TTITLE9=Rock Will Never Die
EXTD=
EXTT0=
EXTT1=
EXTT2=
EXTT3=
EXTT4=
EXTT5=
EXTT6=
EXTT7=
EXTT8=
EXTT9=
PLAYORDER=
